<?xml version="1.0" standalone="no"?>
<!DOCTYPE svg PUBLIC "-//W3C//DTD SVG 20010904//EN"
 "http://www.w3.org/TR/2001/REC-SVG-20010904/DTD/svg10.dtd">
<svg version="1.0" xmlns="http://www.w3.org/2000/svg"
 width="1200.000000pt" height="800.000000pt" viewBox="0 0 1200.000000 800.000000"
 preserveAspectRatio="xMidYMid meet">

<g transform="translate(0.000000,800.000000) scale(0.100000,-0.100000)"
fill="#000000" stroke="none">
<path d="M3 6243 l3 -1758 28 -125 c15 -69 34 -165 41 -215 17 -117 37 -230
69 -386 32 -156 32 -205 0 -213 -12 -3 -29 -9 -38 -12 -13 -5 -16 1 -16 25 0
17 -4 31 -8 31 -9 0 -46 151 -58 235 -18 135 -22 110 -23 -162 l-1 -293 24 0
c14 0 28 4 31 10 21 34 62 -43 53 -101 -4 -33 -52 -35 -56 -1 -3 16 -10 22
-28 22 l-24 0 0 -124 c0 -90 3 -126 13 -129 10 -4 10 -6 0 -6 -10 -1 -13 -312
-13 -1521 l0 -1520 3788 0 3788 0 9 32 c6 18 21 38 33 44 27 13 62 7 62 -10 0
-6 9 -17 20 -24 11 -7 20 -19 20 -27 0 -13 53 -15 413 -15 l412 0 18 39 c11
21 36 56 56 77 55 57 85 102 110 164 38 91 52 124 62 142 5 10 9 26 9 36 0 10
4 22 9 27 5 6 19 44 31 85 13 41 32 91 43 110 51 89 66 122 72 157 3 21 13 58
22 83 29 85 65 185 78 215 7 17 43 106 80 199 47 118 83 192 121 247 30 43 54
83 54 89 0 6 -80 10 -223 10 l-224 0 -35 -72 c-19 -40 -38 -84 -42 -98 -4 -14
-25 -65 -46 -115 -22 -49 -85 -197 -140 -328 -55 -131 -114 -256 -131 -276
-18 -24 -67 -58 -127 -91 -53 -30 -110 -64 -127 -76 -36 -26 -215 -94 -268
-102 -47 -6 -120 21 -146 54 -11 14 -32 57 -47 97 -15 40 -40 99 -55 132 -15
33 -41 94 -59 135 -37 85 -77 170 -178 381 -38 81 -73 162 -77 180 -8 36 -7
34 -55 128 l-33 65 34 28 c55 47 58 49 93 63 18 8 36 11 40 8 3 -4 6 -1 6 6 0
8 5 9 19 2 13 -8 21 -27 26 -68 5 -41 9 -53 16 -41 5 9 21 19 36 23 16 3 36
14 45 22 23 20 43 12 59 -26 l14 -31 226 0 c182 0 229 3 245 15 25 19 54 19
54 0 0 -10 10 -15 34 -15 29 0 34 4 40 31 5 26 16 35 81 65 58 27 82 45 110
82 19 26 40 54 47 62 22 25 57 79 77 118 22 42 95 117 108 109 4 -2 17 -1 28
4 17 7 17 8 -7 8 -33 1 -36 18 -10 52 10 13 49 74 87 134 37 61 74 114 81 118
8 4 14 12 14 18 0 16 65 107 91 127 18 14 49 21 124 26 55 4 134 11 175 15
l75 8 -86 2 c-47 0 -120 4 -162 7 l-76 7 19 27 c10 15 58 67 106 116 47 49
118 125 156 169 146 166 190 187 180 85 -1 -8 -4 -100 -7 -204 -2 -104 -7
-192 -11 -195 -3 -3 -31 -9 -62 -12 l-57 -6 48 -2 c52 -1 92 -27 82 -53 -4 -9
1 -22 9 -31 9 -9 16 -20 16 -24 0 -5 16 -24 35 -43 31 -30 35 -40 34 -80 -5
-118 -1 -132 46 -184 48 -52 55 -72 28 -79 -10 -2 -8 -3 4 -2 13 1 47 -10 77
-26 31 -15 70 -30 87 -34 18 -4 37 -11 43 -16 83 -67 103 -82 125 -94 14 -7
49 -37 77 -67 29 -29 93 -89 143 -133 50 -43 91 -85 91 -92 0 -9 18 -13 63
-13 l64 0 4 38 c5 51 1 452 -7 710 l-7 212 54 1 c30 1 255 3 500 4 299 2 453
6 465 14 15 8 -10 10 -103 11 -112 0 -122 2 -128 20 -6 19 4 54 64 234 17 48
33 108 37 132 l6 44 -39 0 c-29 0 -46 -7 -63 -25 -13 -14 -20 -25 -17 -25 4 0
0 -17 -7 -37 -26 -67 -67 -235 -62 -249 3 -8 -2 -27 -12 -44 -13 -22 -24 -30
-45 -30 -16 0 -34 -6 -41 -13 -10 -9 -79 -11 -307 -7 -276 5 -294 6 -291 23 4
23 32 52 72 72 35 18 52 51 55 109 3 42 24 66 58 66 15 0 18 -5 14 -22 -7 -25
17 -58 41 -58 14 0 13 -37 -3 -100 -22 -86 114 -86 222 1 52 41 93 43 93 3 0
-14 6 -24 14 -24 19 0 26 67 9 88 -8 11 -11 34 -7 67 5 47 30 172 42 205 3 8
4 25 3 38 -1 12 2 37 8 55 6 17 18 79 26 137 8 58 19 134 25 170 20 136 18
130 52 130 29 0 30 -1 16 -22 -8 -13 -15 -36 -16 -53 0 -16 -8 -57 -17 -90
-10 -33 -21 -87 -26 -120 -10 -73 -25 -165 -30 -184 -2 -8 3 -16 12 -18 11 -3
24 13 43 52 14 30 26 64 26 75 0 10 4 21 9 24 12 8 22 113 23 232 l1 102 48 6
c26 4 67 2 91 -3 23 -5 66 -7 93 -5 52 5 249 11 393 13 47 1 82 5 82 11 0 6
-76 10 -209 10 -184 0 -210 2 -215 16 -8 20 13 132 25 140 5 3 9 14 9 25 0 10
5 19 10 19 6 0 10 14 10 30 0 17 7 45 16 61 8 17 13 38 10 46 -4 9 1 21 9 27
13 9 14 17 6 39 -6 15 -15 27 -21 27 -6 0 -9 4 -5 9 7 12 83 21 222 24 104 2
149 14 131 33 -4 3 -67 5 -141 5 -76 -1 -138 2 -141 8 -3 5 0 22 8 38 23 44
42 93 64 158 11 33 27 74 36 90 9 17 16 38 16 47 0 9 5 20 11 24 6 3 9 18 6
31 -6 30 22 62 55 65 13 0 28 2 33 3 6 2 18 3 27 4 11 1 15 6 12 16 -4 8 -10
12 -15 9 -13 -8 -49 15 -49 32 0 8 7 17 15 20 8 4 15 13 15 20 0 8 7 17 15 20
8 4 15 17 15 30 0 13 5 24 11 24 6 0 10 -29 9 -77 -1 -43 -1 -169 -1 -281 1
-185 2 -202 17 -188 8 9 20 16 26 16 13 0 1 50 -18 71 -25 28 -16 72 37 186
l29 62 0 330 c0 199 -4 331 -9 331 -5 0 -22 -5 -37 -10 -21 -8 -29 -8 -36 2
-12 19 -10 1040 2 1033 11 -7 40 18 40 34 0 6 9 11 20 11 20 0 20 7 20 833 l0
834 -4102 6 c-2257 4 -4957 7 -6001 7 l-1897 0 3 -1757z m729 1059 c227 -98
431 -253 483 -367 78 -172 82 -184 90 -270 3 -38 13 -107 22 -152 14 -72 14
-89 2 -130 -20 -68 -18 -97 6 -105 11 -3 -10 -6 -47 -7 -37 -1 -79 4 -95 10
-17 7 -94 11 -198 10 -204 -2 -262 11 -332 74 -43 39 -45 42 -54 120 -12 108
-29 574 -25 709 2 93 5 111 21 122 28 20 55 17 127 -14z m7313 -34 c69 -55
214 -210 256 -273 23 -33 68 -90 100 -126 181 -201 205 -257 193 -437 -5 -64
-8 -127 -8 -139 l1 -23 -653 0 -653 0 14 28 c8 15 33 68 56 117 42 91 101 217
157 335 16 36 39 86 51 113 17 41 28 51 73 72 29 14 63 25 76 25 35 0 98 36
125 72 28 38 58 102 78 168 21 73 39 94 84 99 6 0 28 -14 50 -31z m-5938 -13
c19 -18 83 -155 83 -177 0 -4 12 -33 27 -65 44 -98 112 -153 184 -153 45 0
114 38 150 82 32 39 89 156 103 211 3 15 19 42 35 60 28 31 32 32 104 32 90 0
106 -11 148 -99 31 -65 45 -136 34 -163 -11 -26 -6 -99 11 -167 11 -41 12 -66
6 -81 -5 -11 -9 -101 -9 -200 0 -99 -4 -199 -8 -223 l-7 -42 -158 0 -159 0 15
48 c8 26 21 75 28 109 13 61 13 63 -10 88 -14 15 -34 25 -51 25 -16 0 -81 -29
-148 -66 -123 -67 -283 -142 -322 -151 -13 -3 -23 -9 -23 -14 0 -5 -12 -9 -26
-9 -17 0 -23 -4 -18 -12 5 -8 2 -9 -9 -5 -10 3 -17 2 -17 -3 0 -6 -99 -10
-259 -10 l-259 0 -3 193 c-2 105 -3 221 -2 257 2 100 2 246 1 345 -1 73 3 100
21 142 l23 51 64 12 c35 7 83 10 107 7 23 -3 87 -2 142 2 126 10 174 5 202
-24z m6909 -24 c36 -17 77 -31 90 -31 32 0 117 -23 259 -69 66 -22 158 -52
205 -66 47 -15 87 -31 90 -35 7 -11 133 -69 240 -110 296 -113 373 -144 455
-181 56 -26 158 -68 299 -125 32 -13 63 -27 70 -32 12 -11 115 -66 256 -138
52 -26 132 -70 177 -96 44 -26 84 -48 88 -48 3 0 13 -7 21 -15 14 -13 -124
-15 -1238 -15 l-1253 0 2 248 c3 539 16 676 69 729 32 32 76 28 170 -16z
m-4279 -363 c60 -43 103 -80 279 -247 50 -47 114 -105 143 -129 50 -43 101
-122 101 -160 0 -10 3 -22 7 -26 4 -3 8 -13 9 -21 2 -13 -47 -15 -363 -15
l-366 0 6 122 c4 66 7 196 7 289 l0 167 29 31 c41 43 73 41 148 -11z m6638
-60 c20 -9 25 -18 25 -48 0 -34 3 -38 31 -44 55 -11 89 -7 89 9 0 12 16 15 80
15 50 0 80 -4 80 -11 0 -5 6 -7 13 -3 10 6 10 4 0 -7 -21 -22 -15 -39 15 -39
42 0 55 -13 32 -30 -25 -18 -25 -32 0 -55 24 -21 25 -43 6 -71 -8 -11 -19 -40
-26 -64 -6 -25 -24 -61 -39 -80 -14 -19 -32 -47 -39 -62 -6 -16 -17 -28 -23
-28 -8 0 -8 4 1 15 10 12 10 15 -4 15 -10 0 -16 9 -17 23 -2 91 -37 168 -103
232 -28 28 -50 52 -49 55 1 3 -17 6 -40 8 -23 2 -45 9 -50 17 -4 8 -23 17 -42
21 -20 3 -35 12 -35 20 0 8 -13 17 -30 21 -28 5 -30 8 -30 51 l0 45 50 -7 c32
-4 50 -3 50 4 0 13 23 13 55 -2z m-4206 -30 c13 -21 14 -21 27 -3 13 18 14 18
14 -2 0 -12 -5 -34 -10 -49 -6 -15 -14 -52 -19 -83 -5 -31 -15 -76 -24 -101
-8 -25 -24 -75 -36 -112 -11 -36 -26 -79 -32 -95 -7 -15 -13 -35 -13 -43 -1
-13 -33 -15 -216 -18 l-215 -2 1 140 c1 77 -1 140 -6 140 -4 0 -6 9 -3 20 4
14 0 20 -11 20 -9 0 -16 4 -16 9 0 5 -14 14 -30 21 -17 7 -29 14 -27 17 3 2
-9 18 -24 34 -16 17 -29 37 -29 45 0 8 -4 14 -9 14 -16 0 -23 40 -11 55 10 13
66 15 344 15 330 0 331 0 345 -22z m4005 12 c15 -5 26 -17 26 -28 0 -17 -4
-18 -40 -9 -28 8 -40 17 -40 29 0 20 16 23 54 8z m-6854 -140 c0 -5 -22 -10
-50 -10 -27 0 -50 5 -50 10 0 6 23 10 50 10 28 0 50 -4 50 -10z m0 -40 c0 -11
3 -20 8 -20 4 0 8 -23 9 -52 1 -28 6 -54 11 -57 15 -10 22 -38 34 -148 1 -7 6
-13 12 -13 6 0 5 -4 -2 -9 -8 -4 -13 -11 -13 -15 1 -3 1 -10 1 -16 0 -6 -57
-10 -150 -10 -148 0 -156 2 -151 33 0 4 -4 7 -11 7 -6 0 -8 3 -5 6 3 4 0 16
-8 28 -28 39 -14 216 17 216 4 0 8 7 8 15 0 8 5 15 10 15 6 0 10 9 10 20 0 19
7 20 110 20 103 0 110 -1 110 -20z m-842 -316 c18 -8 32 -17 32 -20 0 -2 -32
-4 -71 -4 -44 0 -68 4 -64 10 3 6 15 10 26 10 10 0 19 5 19 10 0 14 22 12 58
-6z m2819 -20 c-3 -3 -12 -4 -19 -1 -8 3 -5 6 6 6 11 1 17 -2 13 -5z m1456
-364 c8 -11 34 -30 58 -43 24 -12 79 -47 123 -77 43 -30 90 -63 105 -72 14
-10 31 -24 36 -31 6 -7 59 -46 118 -87 60 -40 121 -85 137 -100 l28 -26 -14
-75 c-8 -41 -19 -105 -24 -144 -6 -38 -15 -99 -20 -135 -5 -36 -15 -110 -21
-165 -10 -93 -20 -180 -37 -315 l-7 -54 -70 -3 c-38 -1 -122 -7 -186 -13 -111
-9 -299 -4 -299 9 0 3 9 72 21 153 12 80 19 153 16 162 -8 19 -65 -40 -142
-148 -28 -38 -60 -79 -72 -92 -12 -13 -30 -41 -40 -61 -9 -21 -56 -90 -104
-153 -47 -63 -116 -160 -154 -215 -37 -55 -72 -102 -77 -103 -13 -6 -39 -73
-31 -85 4 -6 46 -7 127 -3 67 5 153 10 191 12 39 2 113 8 165 14 52 5 154 14
225 20 72 6 150 12 175 15 40 3 377 16 520 20 51 1 193 11 485 35 66 6 185 10
265 10 l144 0 45 -47 c42 -45 100 -124 146 -199 12 -18 28 -41 38 -52 9 -10
17 -25 17 -33 0 -8 -44 -61 -97 -118 -54 -56 -103 -109 -110 -116 -7 -7 -20
-19 -30 -27 -10 -7 -72 -71 -138 -143 -66 -71 -156 -168 -200 -215 -114 -122
-202 -222 -281 -320 -37 -47 -73 -90 -79 -96 -23 -25 -62 -71 -93 -111 -19
-24 -40 -43 -48 -43 -7 0 -11 -6 -8 -14 3 -8 -8 -29 -23 -47 -16 -19 -71 -92
-123 -164 -52 -71 -97 -132 -101 -135 -3 -3 -22 -30 -42 -61 -26 -41 -44 -58
-64 -62 -82 -17 -111 -25 -133 -39 -14 -9 -59 -23 -100 -33 -41 -9 -86 -20
-100 -25 -14 -4 -52 -13 -85 -20 -33 -7 -75 -17 -94 -22 -31 -10 -35 -8 -82
38 -27 27 -49 52 -49 57 0 8 -163 233 -179 247 -3 3 -29 32 -56 65 -124 148
-157 194 -316 430 -56 83 -105 152 -110 153 -5 2 -9 8 -9 14 0 5 -11 24 -25
42 -14 18 -25 36 -25 40 0 4 -11 17 -24 29 -27 25 -41 63 -27 71 5 3 21 29 36
58 52 101 134 217 197 280 35 35 70 76 78 91 8 16 28 41 46 56 30 27 36 28
185 34 85 4 192 14 239 22 91 16 184 20 178 8 -19 -43 -88 -134 -104 -139 -15
-4 -20 -11 -17 -24 3 -10 -14 -51 -36 -92 -23 -41 -41 -85 -41 -97 0 -15 33
-58 95 -124 52 -55 95 -105 95 -112 0 -13 54 -64 86 -82 18 -10 25 -9 40 8 9
10 23 19 30 19 7 0 19 9 26 19 8 11 43 45 78 77 135 119 276 252 371 349 152
155 377 390 376 392 -4 3 -463 -33 -522 -41 -22 -3 -112 -8 -200 -10 -88 -3
-239 -12 -335 -21 -96 -9 -344 -20 -550 -25 -206 -5 -415 -14 -465 -21 -157
-20 -167 -19 -186 21 -8 19 -21 62 -28 95 -7 33 -17 70 -22 83 -5 13 -9 38 -9
57 0 19 -4 36 -9 39 -5 3 -11 20 -14 38 -5 38 -36 215 -41 240 -2 9 8 30 23
46 14 16 64 74 111 127 47 54 141 159 210 234 126 138 233 268 303 370 22 31
42 58 47 61 4 3 18 21 31 40 39 57 109 149 191 251 42 53 83 112 92 132 16 40
27 45 45 23 17 -20 87 -28 131 -15 87 26 150 114 150 209 0 43 3 50 19 50 11
0 26 -9 34 -20z m-7165 -24 c134 -49 328 -132 335 -143 4 -7 16 -13 26 -13 24
0 112 -47 129 -68 6 -9 10 -24 7 -33 -3 -9 0 -23 7 -30 13 -14 32 -85 61 -225
9 -45 4 -46 -310 -51 -165 -3 -311 -3 -324 0 -23 6 -27 17 -52 134 -31 149
-67 359 -67 389 0 16 8 23 29 27 17 4 30 14 34 26 4 17 9 18 46 10 22 -5 58
-15 79 -23z m7392 14 c0 -5 -7 -7 -15 -4 -8 4 -15 8 -15 10 0 2 7 4 15 4 8 0
15 -4 15 -10z m42 -18 c2 -4 17 -18 33 -31 33 -26 29 -25 -27 4 -21 10 -38 22
-38 27 0 10 27 11 32 0z m-5535 -57 c21 14 27 15 34 4 6 -11 12 -9 28 5 17 15
25 17 52 7 24 -8 36 -8 46 1 10 8 17 8 25 0 7 -7 29 -12 50 -12 46 0 84 -22
92 -53 3 -12 -1 -45 -8 -72 -11 -46 -15 -51 -47 -56 -19 -4 -25 -7 -13 -8 11
0 29 -10 39 -21 16 -17 16 -22 3 -42 -20 -30 -4 -86 18 -67 8 6 14 20 14 30 0
10 4 20 9 23 5 3 7 15 4 26 -4 16 0 20 18 20 13 0 30 -4 38 -9 11 -7 9 -10 -8
-16 -15 -4 -21 -15 -21 -36 0 -16 -4 -29 -9 -29 -4 0 -14 -28 -20 -62 -7 -35
-17 -81 -24 -103 -6 -22 -11 -47 -9 -55 2 -23 -19 -70 -32 -70 -7 0 -27 -20
-46 -45 -36 -48 -93 -76 -113 -56 -8 8 -5 22 11 52 25 46 28 77 10 84 -7 3
-44 -6 -83 -19 -38 -14 -71 -23 -73 -21 -2 2 4 19 13 37 111 210 101 228 -95
165 -58 -19 -130 -40 -160 -47 -30 -7 -66 -16 -80 -21 -36 -12 -215 -55 -280
-68 -30 -6 -97 -20 -148 -31 -52 -11 -101 -20 -110 -20 -9 0 -35 -7 -59 -16
-38 -15 -43 -21 -59 -73 -17 -57 -53 -110 -55 -81 0 8 -2 29 -4 45 -5 49 -24
242 -36 369 -9 97 -9 120 3 128 7 5 50 7 95 4 45 -3 90 -3 100 2 10 4 -31 9
-97 12 l-115 5 -8 40 c-5 22 -11 65 -14 96 -5 65 -20 56 142 83 79 14 91 14
101 1 13 -17 34 -20 34 -5 0 6 18 8 43 6 23 -2 49 0 57 4 8 4 64 4 123 -1 87
-6 111 -11 123 -26 13 -17 13 -17 14 2 1 18 2 18 13 4 7 -9 18 -14 25 -12 7 3
12 -5 12 -21 0 -38 16 -72 52 -112 42 -47 83 -64 153 -64 109 0 193 88 197
207 1 44 2 45 5 10 l4 -38 26 16z m6264 23 c3 -5 10 -8 15 -7 21 4 34 -2 34
-15 0 -18 78 -16 89 2 5 9 25 8 82 -4 40 -8 97 -20 124 -25 28 -6 69 -15 93
-20 23 -5 61 -13 85 -18 71 -14 138 -32 237 -62 83 -25 318 -83 447 -110 37
-7 202 -48 328 -80 22 -6 56 -14 75 -19 69 -17 254 -74 500 -154 91 -30 176
-56 190 -59 14 -4 33 -12 43 -19 17 -13 17 -22 2 -208 -9 -107 -20 -229 -25
-270 -4 -41 -14 -122 -20 -180 -33 -306 -33 -305 -57 -308 -18 -3 -186 42
-293 77 -14 5 -43 13 -65 19 -81 21 -162 45 -250 72 -49 16 -117 35 -150 43
-33 8 -68 18 -79 22 -14 6 -18 4 -14 -6 2 -8 26 -25 52 -38 45 -22 48 -25 42
-55 -3 -17 -8 -87 -12 -156 -4 -69 -11 -130 -16 -137 -5 -7 -5 -14 1 -18 7 -4
9 -80 6 -223 l-4 -217 15 85 c8 46 16 86 19 88 9 9 74 -20 80 -36 3 -9 8 -52
10 -95 2 -43 6 -92 9 -110 3 -18 7 -147 10 -288 l5 -257 -35 -4 c-19 -2 -39 1
-43 6 -5 6 -12 44 -15 85 -3 41 -8 76 -10 78 -7 7 -18 -78 -21 -152 -2 -38 -4
-244 -4 -457 -1 -299 -4 -388 -14 -388 -6 0 -34 17 -61 38 -53 40 -133 96
-374 262 -135 94 -153 109 -158 139 -8 38 3 818 12 896 3 27 9 52 13 55 9 6
41 75 41 87 0 5 16 24 35 43 19 19 35 42 35 52 0 23 -85 196 -109 223 -47 51
-48 75 -21 345 6 52 11 145 13 205 l4 110 29 -2 c16 -1 43 -4 59 -8 29 -6 29
-6 10 10 -27 23 -103 57 -200 89 -44 15 -88 31 -97 36 -10 6 -26 10 -36 10
-10 0 -22 3 -25 7 -8 7 -151 58 -222 78 -27 7 -81 23 -120 35 -38 12 -86 26
-105 30 -19 5 -60 17 -90 28 -30 11 -75 25 -100 32 -25 7 -63 20 -85 30 -22 9
-52 20 -67 24 -34 8 -36 14 -42 191 -3 77 -10 229 -16 339 -8 148 -7 202 1
212 9 11 15 12 26 2 11 -9 20 -5 42 19 27 30 29 31 82 20 30 -6 57 -14 60 -19z
m-7541 -179 c0 -16 4 -60 10 -97 45 -315 60 -455 65 -602 4 -127 4 -128 -30
85 -25 158 -42 313 -38 355 2 14 -3 54 -11 90 -8 36 -18 95 -21 133 -6 58 -5
67 9 67 11 0 16 -9 16 -31z m3215 11 c3 -5 15 -10 26 -10 10 0 19 -4 19 -8 0
-5 35 -25 78 -45 87 -41 225 -115 292 -157 25 -15 74 -38 108 -51 60 -22 66
-28 92 -79 15 -30 38 -86 50 -125 25 -78 31 -94 53 -145 31 -73 67 -164 67
-171 0 -9 76 -193 91 -221 5 -10 9 -23 9 -30 0 -7 10 -33 22 -58 12 -25 25
-54 29 -65 4 -11 16 -44 28 -74 12 -29 21 -60 21 -67 0 -8 4 -22 10 -32 5 -9
16 -37 24 -62 38 -116 85 -232 127 -313 10 -22 19 -45 19 -54 0 -8 4 -12 9 -9
15 10 23 130 27 456 5 336 15 555 28 567 3 4 28 1 54 -5 49 -13 229 -80 247
-92 6 -3 30 -13 55 -20 25 -8 56 -20 70 -27 14 -7 38 -13 53 -13 22 0 31 -7
42 -34 8 -19 15 -49 17 -68 1 -18 5 -37 8 -43 6 -9 33 -118 60 -247 5 -27 15
-72 21 -100 6 -29 15 -63 20 -76 5 -13 9 -37 9 -53 0 -17 4 -38 9 -48 5 -9 17
-62 25 -116 9 -55 25 -147 36 -205 11 -58 23 -120 26 -137 4 -21 3 -33 -5 -33
-6 0 -2 -15 9 -35 11 -20 20 -48 20 -63 0 -15 9 -70 20 -122 11 -52 20 -114
20 -136 0 -23 9 -88 20 -145 34 -176 59 -323 65 -384 4 -38 17 -110 31 -168 4
-18 2 -27 -5 -27 -17 0 -202 47 -276 69 -33 10 -107 31 -165 46 -58 15 -114
30 -125 35 -11 4 -36 13 -55 20 -19 7 -44 16 -55 21 -11 4 -47 17 -80 28 -33
11 -63 26 -66 33 -15 30 -28 67 -49 138 -12 41 -26 84 -31 95 -4 11 -13 38
-20 60 -6 22 -15 49 -20 60 -12 29 -40 116 -49 150 -5 17 -27 82 -50 145 -23
63 -44 126 -47 140 -2 14 -8 34 -13 45 -20 49 -50 137 -75 220 -15 50 -33 104
-40 120 -36 89 -45 145 -22 146 6 0 3 4 -9 9 -15 6 -24 24 -33 66 -13 58 -25
100 -41 139 -5 11 -11 31 -15 45 -3 14 -14 57 -24 95 -10 39 -26 85 -35 103
-10 19 -15 39 -13 45 2 7 -1 19 -8 27 -7 8 -36 85 -65 170 -29 85 -61 173 -71
195 l-18 40 0 -47 c-1 -26 3 -80 9 -120 5 -40 11 -113 14 -163 2 -49 6 -97 9
-105 3 -8 8 -37 10 -65 6 -57 33 -261 47 -349 6 -40 6 -64 -1 -72 -6 -7 -6
-14 -1 -18 11 -7 28 -99 37 -196 9 -103 45 -465 57 -575 6 -55 11 -140 12
-190 l1 -90 -34 -3 c-34 -3 -362 27 -370 33 -1 2 14 7 35 10 65 11 62 13 -18
14 -83 1 -98 9 -129 69 -7 15 -38 70 -68 122 -46 80 -55 106 -62 167 -4 41
-10 77 -13 81 -9 15 -46 390 -56 567 -5 99 -16 236 -24 305 -27 231 -36 334
-51 610 -20 386 -24 670 -8 670 6 0 15 -4 18 -10z m-1530 -10 c-3 -5 -11 -10
-16 -10 -6 0 -7 5 -4 10 3 6 11 10 16 10 6 0 7 -4 4 -10z m3360 0 c3 -5 1 -10
-4 -10 -6 0 -11 5 -11 10 0 6 2 10 4 10 3 0 8 -4 11 -10z m-1275 -10 c0 -5
-11 -10 -25 -10 -14 0 -25 5 -25 10 0 6 11 10 25 10 14 0 25 -4 25 -10z m5607
-16 c-3 -3 -12 -4 -19 -1 -8 3 -5 6 6 6 11 1 17 -2 13 -5z m-5672 -14 c3 -5 1
-10 -4 -10 -6 0 -11 5 -11 10 0 6 2 10 4 10 3 0 8 -4 11 -10z m5707 5 c3 -3
68 -6 144 -6 77 0 222 -1 324 -2 102 -1 213 -1 248 -1 34 1 62 -2 62 -6 0 -4
-51 -9 -113 -11 -112 -4 -115 -5 -162 -47 -13 -11 -15 -10 -15 12 0 19 -5 26
-19 26 -11 0 -22 -4 -26 -9 -3 -5 -24 -7 -48 -5 -23 3 -48 5 -54 4 -22 -1 -46
0 -98 4 -38 4 -43 3 -20 -3 29 -8 28 -9 -12 -10 -23 0 -44 2 -47 7 -2 4 -36 6
-75 6 -89 -2 -111 3 -111 27 0 18 11 25 22 14z m-4214 -18 c83 -1 152 1 152 5
0 8 528 3 537 -6 4 -3 -29 -6 -72 -6 -67 0 -76 -2 -65 -15 6 -8 9 -23 5 -36
-6 -18 -4 -20 14 -14 15 5 21 2 21 -9 0 -9 6 -16 14 -16 9 0 12 -8 8 -25 -2
-14 -8 -25 -13 -25 -5 0 -9 -7 -9 -15 0 -8 -4 -15 -9 -15 -5 0 -13 -9 -16 -20
-3 -11 -12 -26 -18 -32 -7 -7 -50 -63 -96 -124 -45 -61 -88 -111 -94 -111 -7
0 -27 -1 -45 -1 -38 -2 -34 -22 4 -22 21 0 24 -3 18 -25 -4 -14 -18 -38 -33
-54 -14 -15 -48 -56 -76 -91 -66 -85 -185 -220 -193 -220 -8 0 -38 90 -47 142
-6 30 -4 38 14 47 23 13 29 59 10 78 -8 8 -9 30 -5 66 l7 54 106 6 c58 4 109
4 114 1 5 -3 9 0 9 5 0 12 -30 15 -146 11 -98 -2 -92 -12 -100 180 -3 74 -7
141 -9 148 -8 23 -36 12 -75 -30 -38 -41 -40 -42 -41 -18 0 23 -1 23 -9 5 -7
-15 -9 -10 -9 23 -1 26 3 41 9 37 6 -3 10 -1 10 4 0 17 -52 71 -62 65 -4 -3
-6 -9 -3 -14 3 -5 1 -11 -5 -15 -5 -3 -10 0 -10 9 0 8 -4 16 -9 18 -6 2 -12
15 -15 30 -4 22 0 28 17 31 12 2 31 2 42 0 11 -2 89 -5 173 -6z m4135 6 c-7
-2 -19 -2 -25 0 -7 3 -2 5 12 5 14 0 19 -2 13 -5z m1030 -10 c-7 -2 -19 -2
-25 0 -7 3 -2 5 12 5 14 0 19 -2 13 -5z m-7641 -10 c-10 -4 -10 -8 0 -21 11
-13 11 -14 -2 -10 -23 7 -25 38 -3 37 11 0 13 -3 5 -6z m195 -17 c8 -8 3 -12
-23 -20 -14 -4 -28 -1 -38 10 -11 10 -25 14 -41 10 -14 -4 -25 -2 -25 3 0 19
108 16 127 -3z m-257 4 c0 -5 -14 -7 -32 -3 -46 8 -48 13 -5 13 21 0 37 -4 37
-10z m3211 -8 c-16 -29 -48 -54 -56 -43 -7 12 17 41 34 41 6 0 11 5 11 10 0 6
5 10 10 10 7 0 7 -6 1 -18z m4303 2 c23 -9 20 -24 -4 -24 -11 0 -20 7 -20 15
0 17 2 18 24 9z m-519 -24 c-3 -5 -17 -10 -30 -10 -13 0 -27 5 -30 10 -4 6 8
10 30 10 22 0 34 -4 30 -10z m95 -1 c0 -6 8 -8 19 -4 31 9 100 -11 122 -36 19
-23 20 -23 14 -3 -5 20 -3 21 30 17 20 -3 42 0 50 7 11 9 21 8 46 -7 24 -13
33 -15 36 -5 3 7 25 12 59 12 30 0 63 6 74 13 16 9 22 9 28 0 4 -6 25 -13 47
-16 l40 -4 -42 -1 c-48 -2 -60 -26 -18 -36 13 -3 31 -18 38 -33 12 -22 12 -30
1 -53 -14 -27 -126 -131 -176 -163 -47 -30 -51 -24 -45 58 7 98 2 115 -34 115
-22 0 -29 5 -29 18 0 14 -8 19 -32 20 -36 1 -72 17 -105 45 -20 18 -23 18 -38
3 -18 -18 -41 -21 -49 -7 -3 5 -23 11 -43 14 -62 9 -120 25 -98 26 11 1 36 8
55 15 46 18 50 18 50 5z m-6840 -45 c0 -8 9 -19 20 -26 11 -7 20 -18 20 -25 0
-16 24 -17 50 -1 10 7 21 10 24 7 2 -2 6 -30 8 -62 1 -31 6 -57 10 -57 5 0 8
-49 8 -110 l0 -110 -29 0 c-17 0 -33 -4 -36 -10 -4 -6 5 -10 20 -10 59 0 65
-11 65 -125 0 -112 -9 -146 -47 -170 -23 -15 -25 -14 -66 27 -24 24 -48 54
-55 68 -18 38 -36 64 -49 73 -7 4 -13 14 -13 21 0 8 -13 28 -30 46 -53 57 -42
67 77 72 106 4 84 22 -35 28 -55 3 -102 7 -104 10 -3 3 -13 23 -23 45 -10 22
-31 55 -47 73 -19 23 -27 40 -23 53 7 22 -20 28 -29 7 -3 -7 -3 0 -1 15 2 16
9 35 16 43 14 17 -2 19 -19 2 -6 -6 -14 -9 -18 -6 -9 9 6 49 16 43 4 -3 4 12
0 32 -5 20 -7 41 -4 45 10 16 32 8 37 -13 4 -16 12 -20 29 -17 25 5 39 -5 51
-34 3 -10 11 -18 17 -18 6 0 14 8 17 18 10 26 29 42 51 42 11 0 27 11 37 24
19 25 55 25 55 0z m7728 -169 l-1 -30 -4 30 c-3 16 -9 33 -15 36 -6 4 -7 13
-3 20 11 17 24 -15 23 -56z m19 -37 c-2 -13 -4 -3 -4 22 0 25 2 35 4 23 2 -13
2 -33 0 -45z m-121 18 c3 -14 12 -27 19 -30 7 -2 21 -22 30 -43 9 -21 21 -46
26 -55 7 -14 2 -18 -34 -23 -23 -3 -69 -6 -101 -8 -37 -1 -61 -7 -64 -15 -4
-14 85 -15 94 0 3 5 13 3 22 -4 10 -8 31 -15 47 -17 43 -4 47 -12 31 -56 -8
-22 -20 -60 -26 -85 -12 -43 -24 -77 -39 -110 -4 -8 -18 -48 -30 -87 -13 -40
-27 -73 -31 -73 -4 0 -10 -8 -12 -18 -8 -29 -102 -38 -134 -13 -13 10 -21 21
-18 24 3 3 1 36 -5 73 -12 81 -32 105 -99 119 -38 9 -47 14 -45 30 1 11 3 56
4 100 2 86 11 115 35 115 8 0 14 6 13 13 -4 36 -11 30 143 108 42 22 78 44 80
50 3 9 43 23 80 28 4 1 10 -10 14 -23z m-8486 -16 c28 -16 55 -30 61 -30 6 0
39 -15 75 -34 35 -19 80 -40 98 -46 37 -12 45 -24 147 -215 27 -49 127 -245
223 -435 95 -190 192 -379 215 -420 31 -57 293 -575 498 -986 10 -19 29 -55
44 -84 8 -15 70 -147 128 -272 17 -37 31 -73 31 -81 0 -8 -13 -32 -30 -55 -16
-22 -32 -52 -36 -66 -3 -15 -10 -26 -15 -26 -5 0 -9 -5 -9 -10 0 -12 -95 -156
-109 -164 -7 -5 -43 13 -221 110 -34 18 -115 53 -163 70 -21 7 -50 23 -64 34
-14 11 -32 20 -40 20 -7 0 -44 15 -81 33 -37 19 -92 44 -122 56 -30 12 -116
52 -190 90 -74 38 -206 104 -293 148 -161 81 -212 117 -202 141 2 7 0 10 -5 7
-5 -3 -36 20 -68 52 -164 164 -398 380 -427 395 -39 20 -50 34 -35 43 16 10
12 25 -6 25 -21 0 -103 52 -104 65 0 6 -32 37 -71 70 -39 33 -86 73 -106 89
-33 29 -34 31 -27 80 4 28 7 61 6 74 -1 13 3 33 9 44 6 11 11 37 10 57 -1 46
26 215 69 434 7 32 13 73 15 90 13 120 28 161 69 189 17 12 47 35 66 51 92 78
148 126 190 165 26 23 52 42 58 42 6 0 23 11 38 25 49 45 51 39 57 -132 3 -87
10 -216 16 -288 19 -236 32 -438 37 -585 3 -80 9 -169 14 -199 6 -30 10 -139
10 -242 0 -204 -2 -199 60 -199 16 0 53 -9 82 -20 29 -11 85 -24 123 -30 251
-37 399 -48 340 -26 -54 21 -65 30 -65 54 0 14 -4 39 -9 56 -6 17 -19 87 -31
156 -28 168 -36 210 -55 310 -9 47 -19 105 -22 130 -3 25 -9 49 -14 55 -5 5
-9 20 -9 33 0 14 -4 41 -10 61 -11 42 -41 191 -47 239 l-5 32 158 1 c182 0
210 3 279 23 48 14 38 15 -200 18 l-250 3 -18 70 c-25 95 -35 149 -51 292 -8
67 -19 131 -26 142 -6 12 -10 36 -8 54 1 18 -2 38 -6 45 -6 10 -46 182 -46
199 0 9 24 0 70 -27z m310 -21 c48 -25 68 -43 96 -86 19 -29 34 -60 34 -68 0
-7 4 -16 9 -20 26 -15 231 -345 231 -370 0 -9 9 -25 19 -37 11 -11 34 -48 51
-82 55 -106 165 -327 214 -428 26 -54 51 -100 57 -103 14 -9 79 -142 79 -162
0 -30 -91 121 -187 312 -173 341 -188 370 -196 376 -4 3 -16 29 -27 57 -11 28
-29 62 -40 74 -24 28 -79 119 -104 173 -21 44 -63 104 -85 121 -8 6 -35 51
-60 98 -32 60 -55 93 -76 104 -16 9 -31 20 -33 25 -2 4 -9 7 -15 7 -7 0 -25 9
-42 20 -51 33 3 25 75 -11z m2602 -59 l3 -75 -120 -7 c-235 -13 -315 -15 -315
-7 0 13 16 20 144 64 125 43 176 64 236 95 19 11 38 16 42 12 3 -4 8 -41 10
-82z m-5007 58 c5 -12 10 -46 55 -333 10 -66 23 -149 29 -185 21 -132 36 -246
34 -265 -1 -11 1 -14 3 -7 3 6 10 10 15 6 5 -3 9 4 9 15 0 11 9 26 20 34 19
13 250 457 250 481 0 22 33 42 90 54 30 7 91 23 135 36 118 36 238 66 263 66
12 0 30 4 40 9 38 21 202 50 202 36 0 -11 -62 -100 -75 -108 -8 -4 -15 -13
-15 -19 0 -6 -22 -40 -49 -77 -149 -203 -319 -478 -419 -674 -25 -50 -47 -78
-83 -105 -54 -40 -52 -49 8 -33 21 6 71 11 111 11 l73 0 60 -62 c32 -35 57
-68 55 -73 -2 -6 17 -24 43 -40 54 -34 119 -93 255 -230 172 -174 216 -221
216 -231 0 -5 12 -17 28 -26 15 -9 61 -49 102 -88 41 -39 102 -92 135 -118 33
-25 62 -50 63 -54 2 -5 19 -15 37 -22 19 -8 81 -62 139 -120 59 -58 109 -106
111 -106 6 0 160 -145 215 -202 19 -21 40 -38 45 -38 6 0 46 -36 90 -81 44
-44 92 -87 108 -95 26 -14 38 -44 17 -44 -19 0 -10 -17 18 -30 15 -8 43 -28
62 -46 19 -17 73 -62 120 -99 100 -79 245 -215 278 -258 43 -60 38 -62 -125
-64 -82 0 -211 -8 -288 -17 -146 -18 -432 -15 -505 4 -19 5 -52 12 -72 15 -39
6 -62 29 -233 235 -33 40 -99 113 -147 163 -49 50 -88 94 -88 99 0 28 -302
337 -918 940 -222 217 -242 234 -242 207 0 -17 4 -49 9 -72 32 -142 54 -252
81 -402 43 -237 46 -250 86 -430 20 -88 40 -182 44 -210 5 -27 15 -84 24 -125
9 -41 25 -120 36 -175 11 -55 25 -118 31 -141 14 -52 9 -90 -11 -87 -153 24
-131 19 -340 82 -129 38 -198 67 -248 102 -22 16 -33 63 -63 284 -12 95 -40
259 -45 266 -4 8 -38 179 -49 249 -4 25 -14 70 -22 100 -8 30 -25 100 -39 155
-13 55 -29 114 -34 131 -6 17 -10 38 -10 47 0 9 -4 17 -10 17 -5 0 -10 7 -10
15 0 8 5 15 10 15 7 0 7 6 0 19 -5 11 -11 30 -11 43 -1 15 -4 11 -8 -12 -4
-19 -4 -52 0 -72 9 -56 -7 -72 -64 -64 -26 4 -50 12 -54 19 -7 12 -19 69 -33
162 -11 75 -23 146 -44 260 -10 50 -16 106 -15 125 1 19 -3 53 -9 75 -11 42
-28 169 -38 296 -5 54 -3 78 5 84 7 4 15 5 18 2 2 -3 16 -56 29 -118 14 -62
27 -115 31 -118 7 -8 -3 103 -18 194 -6 39 -13 86 -14 105 -1 19 -7 46 -12 60
-6 14 -17 59 -23 100 -7 41 -16 86 -20 100 -17 51 -42 206 -41 252 0 26 -4 50
-9 53 -6 3 -10 17 -10 31 0 22 4 24 44 24 27 0 46 5 49 13 3 9 7 9 18 1 10 -8
30 -9 69 -2 30 5 73 11 96 12 47 3 64 11 64 31 0 11 17 14 73 13 70 0 137 12
167 32 21 13 40 12 45 -2z m4109 -36 c8 -15 18 -46 22 -67 6 -37 6 -39 -9 -26
-10 7 -17 21 -17 30 0 9 -4 21 -9 27 -14 15 -23 64 -11 64 5 0 16 -13 24 -28z
m1023 -50 c0 -37 3 -82 5 -100 2 -18 -1 -39 -6 -46 -6 -7 -47 -18 -91 -25
-100 -14 -405 -15 -405 -1 0 6 24 10 53 10 28 0 127 7 220 15 92 8 173 14 180
12 9 -1 13 24 15 93 1 52 5 101 7 109 11 28 20 -2 22 -67z m2122 -24 c-1 -35
-5 -97 -10 -138 -18 -151 -41 -367 -50 -465 -18 -201 -21 -230 -31 -240 -10
-9 -8 58 8 365 2 41 8 98 13 125 17 93 34 220 47 358 8 77 26 73 23 -5z
m-8009 -38 c0 -5 -4 -10 -10 -10 -5 0 -10 5 -10 10 0 6 5 10 10 10 6 0 10 -4
10 -10z m29 -62 c22 -49 51 -139 51 -163 0 -12 -6 -14 -27 -9 -16 4 -35 10
-43 14 -8 5 -36 11 -63 15 -80 12 -94 -13 -107 -182 -5 -62 -13 -120 -18 -129
-8 -14 -22 -17 -73 -15 -71 3 -89 12 -89 47 0 13 -7 27 -16 32 -28 15 -10 50
81 157 46 55 84 103 85 107 0 4 14 22 30 40 17 18 30 40 30 49 0 25 33 49 86
63 27 8 50 14 51 15 1 0 11 -18 22 -41z m4890 0 c7 -24 16 -56 21 -73 42 -148
47 -175 32 -175 -5 0 -14 24 -21 53 -7 28 -20 72 -28 97 -9 25 -19 59 -23 75
-4 17 -11 38 -15 48 -5 12 -3 17 8 17 9 0 19 -17 26 -42z m-2739 -17 c-33 -29
-46 -35 -48 -24 -6 22 38 63 67 63 25 0 24 -2 -19 -39z m8640 -76 c0 -34 -4
-107 -10 -161 -5 -55 -17 -187 -26 -294 -23 -276 -32 -370 -40 -412 -6 -36 -8
-38 -45 -38 -42 0 -136 28 -205 61 -22 10 -48 19 -57 19 -9 0 -50 15 -89 33
-40 18 -89 39 -108 46 -36 14 -64 24 -102 40 -13 5 -39 14 -58 20 -19 6 -57
17 -84 26 -27 8 -55 15 -61 15 -11 0 -27 -94 -43 -237 -2 -24 -8 -43 -13 -43
-5 0 -10 -12 -10 -27 -1 -16 -5 -6 -9 22 -4 28 -4 55 1 60 4 6 10 72 15 149
l7 138 37 -5 c20 -2 52 -11 71 -20 19 -8 88 -36 154 -62 66 -26 129 -51 140
-55 37 -15 79 -29 170 -55 50 -15 93 -31 96 -36 3 -5 36 -21 74 -34 38 -14 72
-31 76 -37 16 -26 29 48 39 220 5 97 10 200 10 227 -1 28 6 108 15 180 8 71
15 159 15 195 0 73 16 144 31 135 5 -4 9 -35 9 -70z m-8970 -17 c-55 -114 -89
-172 -157 -272 -40 -60 -72 -115 -69 -122 3 -7 -2 -18 -9 -24 -15 -12 -125
-174 -125 -183 0 -2 25 -23 55 -46 71 -54 245 -212 245 -224 0 -4 12 -19 28
-32 15 -13 24 -27 19 -31 -9 -10 -57 16 -57 31 0 6 -21 27 -47 45 -27 19 -64
49 -83 66 -19 18 -48 43 -65 55 -16 13 -36 29 -42 35 -7 7 -28 22 -47 33 -59
37 -55 64 24 190 22 36 49 74 60 86 11 12 20 26 20 31 0 6 21 42 48 80 26 38
83 126 127 197 79 126 115 167 75 85z m800 -63 c0 -19 -4 -35 -10 -35 -5 0
-10 16 -10 35 0 19 5 35 10 35 6 0 10 -16 10 -35z m5678 -24 c31 -10 80 -24
107 -30 116 -28 188 -47 250 -66 22 -7 74 -23 115 -35 41 -12 84 -26 95 -30
11 -4 40 -14 65 -21 93 -26 63 -39 -42 -18 -59 12 -71 15 -248 60 -69 17 -136
34 -150 37 -14 3 -36 13 -49 23 -13 11 -36 19 -52 19 -53 0 -189 43 -189 60 0
25 25 25 98 1z m-5675 -163 c3 -59 8 -111 10 -115 3 -5 10 -116 16 -248 7
-132 16 -273 22 -313 12 -100 12 -415 -1 -407 -5 3 -10 19 -10 34 0 15 -4 41
-10 57 -5 16 -12 112 -15 214 -3 102 -10 253 -15 335 -12 172 -21 536 -13 548
9 15 11 2 16 -105z m2334 70 c-3 -7 -5 -2 -5 12 0 14 2 19 5 13 2 -7 2 -19 0
-25z m-4960 -10 c47 -21 47 -19 16 -203 -15 -92 -19 -113 -46 -245 -8 -41 -21
-109 -28 -150 -7 -41 -15 -79 -19 -85 -4 -5 -10 -37 -14 -70 -17 -153 -22
-184 -34 -198 -12 -14 -17 -14 -50 5 -65 36 -65 35 -57 118 4 41 11 83 16 93
6 9 11 32 13 50 4 39 26 134 78 332 22 83 40 161 40 175 0 27 28 170 35 183 6
10 18 9 50 -5z m8105 -45 c2 -35 8 -50 23 -58 11 -6 44 -34 73 -63 30 -29 58
-50 62 -47 12 8 160 -36 160 -47 0 -5 -7 -25 -15 -46 -14 -36 -14 -36 3 -14
54 73 50 71 132 60 41 -6 104 -19 139 -29 35 -10 74 -19 85 -19 12 0 75 -11
141 -25 66 -14 121 -25 123 -25 2 0 2 -15 0 -32 -3 -30 -6 -33 -38 -35 -19 0
-71 -6 -115 -12 -44 -6 -123 -15 -175 -21 -52 -5 -122 -14 -155 -20 -33 -6
-97 -11 -142 -11 -45 0 -85 -4 -88 -9 -3 -6 -34 -10 -69 -10 -34 0 -89 -5
-121 -12 -53 -10 -59 -10 -72 8 -7 10 -11 25 -8 33 3 8 8 67 11 130 2 64 9
139 14 166 5 28 9 57 8 65 -4 45 3 120 11 120 6 0 11 -21 13 -47z m-6195 -51
c-5 -26 -11 -69 -11 -97 -3 -88 -47 -298 -65 -309 -11 -7 -156 117 -153 131 6
26 71 121 107 156 19 19 35 39 35 46 0 20 84 141 91 130 3 -6 2 -32 -4 -57z
m9123 -127 c11 -29 65 -52 84 -36 11 10 17 7 29 -10 9 -11 14 -29 12 -38 -12
-58 -76 -295 -80 -300 -4 -3 -54 -7 -112 -9 l-106 -4 6 123 c3 68 11 163 17
210 l12 87 65 0 c57 0 65 -3 73 -23z m-3237 -21 c-1 -10 -7 -62 -14 -114 -6
-52 -14 -126 -18 -165 l-6 -70 -70 -7 c-38 -4 -115 -12 -170 -19 -55 -6 -152
-13 -216 -16 l-116 -5 -6 35 c-7 45 0 102 23 202 11 44 21 91 22 105 3 25 4
25 123 31 66 3 149 11 185 18 68 12 238 30 255 26 6 -1 9 -11 8 -21z m-720
-61 c-4 -10 -40 -68 -80 -130 -40 -61 -73 -114 -73 -118 0 -16 -42 -65 -56
-65 -24 0 -16 26 29 86 24 33 63 88 86 124 39 57 89 120 98 120 1 0 -1 -8 -4
-17z m-7013 -102 c-27 -173 -51 -281 -63 -281 -5 0 -4 -6 2 -14 12 -14 8 -34
-38 -206 -30 -113 -33 -120 -43 -120 -10 0 -8 22 12 120 14 66 39 195 45 230
2 14 9 52 14 85 6 33 15 78 21 100 22 80 28 100 33 115 3 8 9 29 12 45 14 57
17 3 5 -74z m4679 -91 c7 -41 16 -91 20 -112 5 -20 5 -41 2 -47 -12 -19 -28 4
-34 49 -4 25 -11 73 -16 107 -10 64 -4 118 9 92 4 -8 12 -48 19 -89z m6328
-171 l28 -10 -28 -17 c-15 -9 -27 -22 -27 -28 0 -7 -13 -39 -29 -71 -26 -51
-38 -104 -44 -194 -1 -14 -7 -32 -14 -40 -6 -8 -13 -25 -15 -39 -2 -19 -10
-26 -33 -28 -16 -2 -34 -8 -40 -13 -5 -5 -46 -9 -92 -9 -73 0 -83 2 -81 18 1
9 0 37 0 61 -2 43 -2 43 -32 38 -29 -6 -30 -5 -30 29 0 46 -15 72 -48 86 -56
22 -1 18 69 -6 59 -20 83 -23 117 -16 24 4 47 12 52 16 5 5 11 52 14 104 2 52
5 99 5 103 3 25 172 37 228 16z m-6292 -31 c3 -13 10 -54 15 -93 5 -38 12 -88
15 -110 3 -22 10 -69 15 -105 17 -117 19 -160 5 -160 -12 0 -15 17 -46 235 -5
39 -17 107 -25 152 -9 45 -13 87 -9 93 10 17 24 11 30 -12z m5309 -5 c4 -18
31 -150 61 -309 8 -45 15 -92 15 -105 0 -13 6 -55 15 -94 8 -38 22 -135 30
-215 14 -137 14 -146 -2 -158 -10 -7 -31 -12 -48 -10 l-30 3 -27 160 c-15 88
-32 210 -38 270 -7 61 -25 182 -41 270 -16 88 -29 165 -29 172 0 12 42 31 72
32 9 1 19 -7 22 -16z m-9948 -260 c18 -92 34 -181 34 -197 0 -16 4 -43 9 -60
6 -17 20 -68 32 -113 26 -100 42 -116 108 -114 l50 1 11 -43 c5 -23 14 -55 20
-72 5 -16 12 -55 16 -85 4 -30 11 -60 16 -66 5 -7 8 -16 6 -20 -4 -15 13 -144
33 -254 10 -58 19 -122 19 -142 0 -37 -1 -38 -37 -39 -21 -1 -45 0 -53 1 -17
2 -121 89 -170 142 -20 21 -41 38 -47 38 -7 0 -16 7 -21 16 -7 13 -24 20 -54
23 -5 1 -8 11 -8 22 0 24 -19 42 -68 64 -29 12 -101 65 -140 102 -7 7 -31 17
-54 24 -31 8 -38 13 -27 20 8 5 25 9 39 9 20 1 15 6 -26 25 -33 15 -61 38 -79
64 -15 23 -35 41 -44 42 -13 0 -14 2 -1 6 8 4 22 16 32 28 9 12 39 28 65 34
165 41 189 54 165 84 -13 15 -42 155 -36 171 2 6 20 20 39 30 36 20 43 32 23
38 -8 3 -7 19 5 59 49 161 70 238 74 269 14 122 27 101 69 -107z m10207 151
c20 -3 39 -10 42 -14 9 -15 -67 -290 -81 -290 -7 0 -16 28 -22 68 -13 83 -22
139 -29 174 -9 47 4 77 29 72 13 -2 40 -7 61 -10z m-2230 -121 c-7 -2 -21 -2
-30 0 -10 3 -4 5 12 5 17 0 24 -2 18 -5z m-58 -23 c-3 -5 -23 -10 -44 -10 -20
0 -41 -4 -46 -9 -6 -5 -35 -12 -65 -15 -155 -18 -162 -18 -156 -7 4 6 27 11
51 11 24 0 47 5 50 10 3 6 28 10 55 10 27 0 52 5 55 10 3 6 29 10 56 10 31 0
48 -4 44 -10z m-335 -53 c0 -15 -164 -47 -234 -47 -40 0 -86 -30 -86 -55 0
-18 -37 -48 -44 -36 -8 12 71 130 87 132 7 1 62 5 122 9 61 3 120 7 133 8 12
1 22 -4 22 -11z m2790 -2 c8 -9 10 -29 6 -52 -3 -21 -10 -74 -16 -118 -15
-110 -64 -326 -93 -410 -14 -39 -28 -96 -32 -128 -7 -60 -21 -77 -65 -77 -16
0 -20 5 -16 18 2 9 8 37 11 62 4 25 11 50 15 55 11 15 22 63 26 115 7 88 54
328 81 415 44 141 54 155 83 120z m-4180 -54 c0 -9 -15 -12 -159 -29 -40 -5
-76 -14 -80 -20 -10 -16 -6 -59 6 -74 6 -7 13 -53 17 -103 3 -49 10 -115 14
-145 5 -30 15 -89 21 -130 7 -41 18 -104 26 -140 32 -152 79 -416 78 -440 0
-8 7 -40 17 -70 10 -31 21 -88 25 -128 l7 -72 -34 0 c-19 0 -38 4 -44 8 -5 5
-29 16 -54 24 -44 16 -71 23 -345 88 -115 28 -213 54 -338 92 -59 18 -39 33
39 30 64 -2 121 -13 169 -32 11 -5 29 -11 40 -13 11 -3 58 -17 105 -32 89 -28
148 -43 215 -52 22 -3 45 -9 50 -13 15 -12 140 -17 138 -5 -1 6 -3 44 -6 87
-3 42 -7 80 -10 85 -3 4 -8 26 -12 48 -9 58 -38 205 -61 315 -9 41 -20 98 -24
125 -5 28 -14 76 -19 108 -27 142 -33 176 -42 232 -6 33 -12 80 -14 105 -2 25
-8 58 -14 73 -6 16 -11 42 -11 58 l0 29 150 0 c83 0 150 -4 150 -9z m-6538
-54 c3 -18 8 -40 13 -49 5 -14 2 -18 -13 -18 -21 0 -32 33 -32 92 0 25 3 28
14 19 8 -6 16 -26 18 -44z m10179 -54 c6 -6 15 -85 20 -175 6 -90 12 -197 15
-238 14 -191 16 -240 6 -240 -5 0 -30 -16 -55 -35 l-45 -35 3 -117 c7 -198 9
-733 3 -738 -3 -3 -43 14 -89 37 -46 23 -102 51 -124 61 -44 21 -145 75 -185
98 -60 34 -240 174 -240 186 0 7 3 13 8 13 12 0 112 -59 333 -197 55 -35 103
-63 108 -63 5 0 34 -12 65 -26 32 -14 59 -24 61 -22 6 5 26 222 24 261 0 18 0
159 0 315 1 259 3 283 19 289 36 13 83 55 78 70 -3 8 -8 110 -11 227 -3 116
-9 235 -14 263 -4 28 -5 78 -2 110 6 58 6 58 9 13 2 -24 8 -50 13 -57z m-5120
-58 c4 -28 12 -88 18 -135 6 -47 15 -130 21 -185 5 -55 12 -111 15 -123 5 -20
9 -217 6 -258 -1 -7 -16 -14 -33 -17 -31 -4 -72 -1 -268 24 -112 13 -210 40
-210 56 0 10 16 11 63 7 34 -3 69 -8 77 -11 8 -2 80 -8 160 -13 80 -5 154 -12
164 -16 18 -7 19 -3 12 92 -4 54 -9 119 -11 144 -8 110 -34 339 -51 449 -6 39
-5 43 12 39 15 -2 21 -15 25 -53z m2490 33 c-5 -13 -25 -56 -45 -97 -20 -41
-36 -80 -36 -86 0 -7 25 -36 56 -66 70 -68 117 -126 112 -139 -6 -20 -208 169
-208 195 0 19 77 174 98 198 21 24 33 21 23 -5z m-7525 -33 c4 -14 4 -28 1
-31 -8 -9 -48 36 -42 46 12 19 35 10 41 -15z m10744 -126 c-12 -74 -27 -161
-35 -194 -7 -33 -16 -76 -19 -95 -3 -19 -13 -66 -22 -105 -9 -38 -17 -77 -18
-85 -3 -27 -16 -40 -53 -55 -49 -21 -75 -20 -71 3 2 10 24 25 54 37 l50 19 13
86 c7 47 18 108 26 135 7 28 20 86 30 130 9 44 21 93 26 109 5 16 9 45 9 65 0
32 20 95 27 87 2 -2 -6 -63 -17 -137z m-2929 95 c38 3 69 5 69 3 0 -2 -37 -36
-81 -77 l-82 -74 -43 47 c-24 25 -44 51 -44 57 0 6 11 22 24 35 22 22 28 23
56 13 20 -6 59 -8 101 -4z m-7836 -44 c-3 -5 -10 -10 -16 -10 -5 0 -9 5 -9 10
0 6 7 10 16 10 8 0 12 -4 9 -10z m1359 -130 c9 -41 21 -93 26 -115 6 -22 15
-65 21 -95 50 -280 55 -303 90 -420 12 -41 22 -84 23 -96 1 -11 6 -27 11 -34
5 -8 12 -35 16 -60 4 -25 13 -64 18 -87 43 -170 54 -227 55 -270 1 -24 -3 -43
-9 -44 -11 -1 -11 -1 -56 216 -17 83 -38 169 -45 193 -8 23 -13 46 -10 50 3 4
-4 34 -14 65 -35 107 -74 280 -95 422 -1 11 -17 82 -34 158 -17 76 -31 157
-31 180 1 57 14 32 34 -63z m7761 13 c-21 -32 -63 -83 -92 -113 -30 -30 -71
-82 -93 -115 -49 -76 -180 -214 -187 -198 -5 15 64 105 154 198 34 36 79 91
99 122 38 60 144 177 152 168 3 -2 -12 -31 -33 -62z m147 -195 c-15 -15 -24
-6 -16 16 5 12 10 14 17 7 8 -8 8 -14 -1 -23z m-7639 -68 c15 -16 34 -30 42
-30 8 0 15 -4 15 -10 0 -5 6 -10 13 -10 16 -1 50 -30 71 -63 10 -15 25 -27 32
-27 8 0 51 -33 95 -72 45 -40 108 -95 140 -122 33 -26 59 -52 59 -57 0 -15
-82 -99 -96 -99 -8 0 -14 -8 -14 -17 0 -10 -22 -41 -48 -68 -26 -28 -78 -86
-116 -128 -38 -43 -72 -75 -76 -70 -3 4 -19 61 -34 125 -25 110 -26 120 -11
148 13 24 13 30 2 30 -16 0 -31 43 -52 155 -9 44 -25 115 -36 157 -22 89 -33
188 -21 188 5 0 21 -13 35 -30z m-1788 -40 c3 -5 -3 -10 -14 -10 -12 0 -21 5
-21 10 0 6 6 10 14 10 8 0 18 -4 21 -10z m8895 -148 c0 -11 -9 -23 -20 -28
-12 -5 -34 -41 -54 -87 -44 -100 -79 -147 -112 -147 -13 0 -24 5 -24 11 0 18
140 217 172 244 35 30 38 30 38 7z m-5150 -272 c0 -5 8 -10 18 -11 10 0 12 -3
5 -6 -7 -2 -23 3 -35 11 -18 13 -19 16 -5 16 9 0 17 -4 17 -10z m4970 -6 c0
-21 -125 -194 -237 -329 -28 -35 -72 -94 -97 -131 -25 -38 -51 -76 -59 -84 -7
-9 -25 -32 -40 -52 -34 -44 -70 -58 -149 -58 -32 0 -90 -7 -127 -15 -73 -17
-206 -17 -206 0 0 10 201 48 377 72 41 5 49 10 62 38 9 18 32 47 51 64 19 17
35 33 35 36 0 6 76 102 90 115 3 3 17 21 30 40 14 19 35 46 47 60 37 43 143
193 143 203 0 20 33 47 57 47 12 0 23 -3 23 -6z m-7875 -54 c4 -6 -8 -10 -30
-10 -22 0 -34 4 -30 10 3 6 17 10 30 10 13 0 27 -4 30 -10z m3114 -52 c67 -35
139 -71 159 -82 21 -10 39 -22 42 -26 3 -5 28 -14 55 -21 53 -13 96 -30 211
-85 50 -24 86 -34 118 -34 l47 0 66 103 c77 119 71 112 79 105 3 -4 -2 -21
-12 -40 -26 -52 -126 -218 -134 -223 -3 -2 -31 4 -61 15 -30 10 -99 32 -155
49 -95 29 -278 114 -304 141 -3 3 -34 21 -70 40 -36 19 -78 41 -95 50 -85 44
-115 70 -82 70 7 0 68 -28 136 -62z m-3841 45 c-21 -2 -55 -2 -75 0 -21 2 -4
4 37 4 41 0 58 -2 38 -4z m332 -3 c-13 -8 -239 -3 -249 6 -2 2 56 4 130 4 86
0 129 -4 119 -10z m1865 -4 c-12 -8 -26 -11 -35 -6 -8 4 -22 10 -30 13 -8 3 7
6 34 6 45 1 48 0 31 -13z m-1078 -467 c27 -7 80 -27 118 -45 39 -18 86 -38
105 -43 37 -11 233 -74 285 -91 16 -5 32 -6 36 -2 4 4 3 47 -2 96 -6 48 -8 90
-5 93 13 13 36 -9 36 -33 0 -15 4 -43 9 -63 22 -86 33 -149 27 -159 -6 -10
-73 5 -121 27 -32 15 -55 22 -130 41 -38 10 -97 28 -130 40 -33 12 -75 28 -93
34 -18 7 -38 18 -44 24 -7 7 -20 12 -29 12 -9 0 -38 9 -65 21 -27 11 -59 24
-72 30 -26 10 -21 29 8 29 11 0 41 -5 67 -11z m2923 -5 c0 -2 -9 -4 -20 -4
-11 0 -20 4 -20 9 0 5 9 7 20 4 11 -3 20 -7 20 -9z m2945 6 c-3 -5 -17 -10
-31 -10 -13 0 -24 5 -24 10 0 6 14 10 31 10 17 0 28 -4 24 -10z m-6495 -12 c0
-5 9 -8 21 -8 11 0 17 5 14 10 -3 6 1 10 9 10 8 0 18 -5 22 -12 4 -6 3 -8 -4
-4 -6 3 -13 2 -17 -4 -8 -12 -125 -13 -125 -1 0 5 6 11 13 14 18 7 67 3 67 -5z
m238 7 c-10 -11 -158 -16 -158 -5 0 6 32 10 82 10 45 0 79 -2 76 -5z m1199 -1
c-3 -3 -12 -4 -19 -1 -8 3 -5 6 6 6 11 1 17 -2 13 -5z m461 -16 c-2 -16 -9
-22 -23 -21 -11 1 -27 0 -35 -4 -23 -9 -128 -12 -188 -6 -45 5 -50 7 -36 18
15 11 15 12 -6 18 -21 5 -57 -6 -70 -22 -24 -29 -39 -32 -59 -10 -44 47 -37
49 200 49 l220 0 -3 -22z m196 7 c10 -26 -52 -26 -139 -1 l-50 15 92 -1 c65 0
93 -4 97 -13z m2229 8 c-7 -2 -19 -2 -25 0 -7 3 -2 5 12 5 14 0 19 -2 13 -5z
m85 0 c-10 -2 -26 -2 -35 0 -10 3 -2 5 17 5 19 0 27 -2 18 -5z m472 -4 c0 -8
-13 -9 -42 -5 -28 5 -44 3 -49 -6 -6 -9 -13 -9 -33 1 -13 8 -35 11 -48 9 -13
-3 -34 -2 -48 2 -15 5 23 8 98 9 84 1 122 -2 122 -10z m288 4 c-10 -2 -28 -2
-40 0 -13 2 -5 4 17 4 22 1 32 -1 23 -4z m150 0 c-16 -2 -40 -2 -55 0 -16 2
-3 4 27 4 30 0 43 -2 28 -4z m235 0 c-7 -2 -19 -2 -25 0 -7 3 -2 5 12 5 14 0
19 -2 13 -5z m80 0 c-13 -2 -33 -2 -45 0 -13 2 -3 4 22 4 25 0 35 -2 23 -4z
m-2044 -42 c15 -23 15 -24 -7 -10 -12 7 -24 20 -27 27 -8 21 17 9 34 -17z m67
-55 c28 -21 16 -23 -191 -36 -99 -6 -198 -15 -220 -20 -67 -15 -634 -7 -674 9
-29 12 -31 15 -16 24 9 5 35 6 58 3 45 -8 447 -8 547 -1 36 3 130 9 210 15 80
6 168 12 195 14 28 1 55 3 61 4 5 1 19 -4 30 -12z m-3276 -315 c0 -5 -8 -23
-17 -40 -23 -39 -74 -43 -104 -8 -48 56 -47 57 41 57 44 0 80 -4 80 -9z m794
-13 c3 -13 7 -43 9 -68 3 -25 10 -76 16 -115 5 -38 19 -158 31 -265 11 -107
26 -226 32 -265 6 -38 11 -100 12 -137 1 -77 -9 -93 -71 -114 -72 -26 -100
-19 -274 68 -90 44 -166 84 -169 87 -3 3 -18 13 -34 21 -45 23 -131 110 -155
157 -16 33 -25 85 -40 240 -11 109 -22 246 -25 306 l-6 107 335 0 335 0 4 -22z
m632 -10 c-79 -183 -215 -464 -249 -515 -28 -42 -71 -44 -119 -6 -18 15 -34
27 -35 28 -10 5 -33 239 -32 315 1 52 1 121 0 153 l-1 57 225 0 225 0 -14 -32z
m1249 -10 c11 -65 48 -125 227 -371 62 -85 106 -154 247 -387 64 -106 66 -134
13 -182 l-38 -34 -171 -12 c-94 -7 -208 -20 -253 -28 -75 -14 -100 -14 -279 1
-217 18 -249 24 -296 56 -46 32 -68 69 -150 252 -77 170 -81 179 -209 412 -6
11 -22 35 -35 53 -13 18 -38 76 -57 129 -19 53 -41 107 -49 119 -8 13 -15 26
-15 29 0 3 238 5 529 5 l529 0 7 -42z m1245 37 c0 -3 -9 -24 -20 -48 -10 -23
-30 -80 -44 -127 -26 -92 -68 -205 -92 -251 -30 -58 -118 -77 -170 -37 -16 13
-61 53 -99 90 -39 37 -93 84 -120 105 -28 20 -59 46 -70 56 -11 11 -65 53
-120 95 -55 41 -113 86 -128 99 l-29 23 446 0 c245 0 446 -2 446 -5z m1829
-37 c-1 -24 2 -68 6 -99 l7 -56 -55 -27 c-31 -14 -64 -26 -74 -26 -22 0 -102
36 -123 55 -8 7 -53 25 -100 40 -47 14 -98 33 -113 41 -16 8 -33 14 -38 14 -5
0 -28 15 -52 33 -23 17 -54 40 -67 49 -24 16 -9 17 292 17 l317 1 0 -42z
m2211 3 c0 -17 -12 -41 -21 -41 -10 0 -12 33 -2 43 9 10 23 9 23 -2z m-2727
-83 c12 -7 24 -13 27 -13 3 -1 45 -28 94 -60 49 -33 102 -68 117 -78 16 -11
29 -23 29 -28 0 -5 9 -9 20 -9 11 0 20 -6 20 -12 0 -18 47 -38 87 -38 18 0 33
-4 33 -8 0 -15 68 -7 88 11 25 23 70 21 110 -3 58 -36 69 -105 23 -150 -57
-57 -109 -47 -206 42 -29 26 -58 48 -64 48 -6 0 -20 9 -31 20 -13 13 -34 20
-57 20 -21 1 -49 7 -63 15 -14 8 -38 14 -54 15 -34 0 -160 48 -261 99 -67 34
-70 38 -68 69 0 20 11 44 25 59 20 21 29 24 66 19 24 -3 53 -11 65 -18z m2683
-63 c4 -8 1 -22 -6 -30 -15 -18 -50 1 -50 27 0 23 48 25 56 3z m-4431 -365 c4
-6 10 -8 15 -5 5 3 25 -10 45 -29 47 -45 46 -79 -3 -84 -18 -2 -44 4 -57 12
-26 17 -58 73 -49 87 3 5 -1 9 -8 10 -7 0 -4 4 7 9 28 12 43 12 50 0z m4093
-407 c-1 -5 2 -20 6 -35 9 -32 -18 -92 -65 -146 -16 -18 -29 -37 -29 -43 0
-15 -31 -45 -65 -62 -16 -8 -73 -20 -125 -27 -52 -7 -99 -16 -105 -20 -5 -4
-21 -10 -36 -13 -38 -10 -66 29 -61 84 2 17 56 37 121 43 50 5 187 69 212 99
10 12 28 39 41 59 13 21 31 40 41 44 9 3 15 10 12 15 -4 5 8 9 24 9 17 0 30
-3 29 -7z m-7121 -85 c21 -12 55 -35 75 -51 21 -15 68 -44 105 -64 38 -20 75
-41 83 -48 8 -6 38 -25 66 -42 38 -23 55 -28 68 -21 24 13 96 1 121 -20 12 -9
27 -31 34 -49 11 -27 11 -35 -2 -53 -14 -20 -79 -70 -91 -70 -3 0 -29 15 -58
34 -29 18 -93 52 -142 75 -89 42 -134 71 -191 123 -16 16 -36 28 -42 28 -7 0
-13 5 -13 10 0 6 -6 10 -14 10 -8 0 -29 14 -47 31 -17 16 -40 34 -50 39 -14 8
-16 16 -8 42 15 54 45 61 106 26z m2893 -157 c0 -24 -18 -37 -31 -24 -13 13
-1 43 17 43 8 0 14 -9 14 -19z m-262 -46 c4 -4 1 -10 -6 -12 -6 -3 -10 -9 -6
-14 3 -5 -2 -9 -11 -9 -9 0 -14 -4 -11 -9 7 -10 -35 -22 -83 -23 -17 -1 -31
-5 -31 -10 0 -4 -20 -8 -45 -8 -25 0 -45 3 -45 8 0 4 -33 9 -72 10 -40 2 -74
7 -76 13 -5 14 -78 11 -94 -4 -14 -13 -62 -17 -74 -4 -4 4 -22 7 -41 7 -27 0
-32 3 -30 20 2 11 6 22 9 25 9 9 178 -7 172 -16 -3 -5 21 -9 53 -9 39 0 53 3
44 9 -18 12 15 18 149 31 104 9 186 7 198 -5z"/>
<path d="M1615 5650 c-3 -5 -1 -10 4 -10 6 0 11 5 11 10 0 6 -2 10 -4 10 -3 0
-8 -4 -11 -10z"/>
<path d="M2643 5643 c15 -2 39 -2 55 0 15 2 2 4 -28 4 -30 0 -43 -2 -27 -4z"/>
<path d="M6471 5586 c-8 -10 -9 -16 -1 -21 5 -3 13 1 16 10 9 22 -1 29 -15 11z"/>
<path d="M6900 5584 c0 -8 5 -12 10 -9 6 3 10 10 10 16 0 5 -4 9 -10 9 -5 0
-10 -7 -10 -16z"/>
<path d="M6285 5570 c4 -6 11 -8 16 -5 14 9 11 15 -7 15 -8 0 -12 -5 -9 -10z"/>
<path d="M6320 5576 c0 -2 9 -6 20 -9 11 -3 20 -1 20 4 0 5 -9 9 -20 9 -11 0
-20 -2 -20 -4z"/>
<path d="M6400 5570 c0 -5 4 -10 9 -10 6 0 13 5 16 10 3 6 -1 10 -9 10 -9 0
-16 -4 -16 -10z"/>
<path d="M6362 5539 c2 -6 8 -10 13 -10 5 0 11 4 13 10 2 6 -4 11 -13 11 -9 0
-15 -5 -13 -11z"/>
<path d="M6417 5529 c4 -13 9 -17 15 -11 11 11 3 32 -12 32 -4 0 -6 -9 -3 -21z"/>
<path d="M6321 5504 c0 -11 3 -14 6 -6 3 7 2 16 -1 19 -3 4 -6 -2 -5 -13z"/>
<path d="M10985 5530 c-4 -6 3 -10 14 -10 25 0 27 6 6 13 -8 4 -17 2 -20 -3z"/>
<path d="M11198 5513 c6 -2 18 -2 25 0 6 3 1 5 -13 5 -14 0 -19 -2 -12 -5z"/>
<path d="M11135 5490 c3 -5 13 -10 21 -10 8 0 14 5 14 10 0 6 -9 10 -21 10
-11 0 -17 -4 -14 -10z"/>
<path d="M4205 5430 c3 -5 8 -10 11 -10 2 0 4 5 4 10 0 6 -5 10 -11 10 -5 0
-7 -4 -4 -10z"/>
<path d="M2181 2064 c0 -11 3 -14 6 -6 3 7 2 16 -1 19 -3 4 -6 -2 -5 -13z"/>
<path d="M2345 2060 c-3 -5 1 -10 9 -10 9 0 16 5 16 10 0 6 -4 10 -9 10 -6 0
-13 -4 -16 -10z"/>
<path d="M2420 2060 c0 -5 5 -10 10 -10 6 0 10 5 10 10 0 6 -4 10 -10 10 -5 0
-10 -4 -10 -10z"/>
<path d="M11375 3572 c-16 -10 -32 -18 -34 -19 -1 -1 -4 -19 -5 -40 -1 -21 -7
-47 -14 -58 -42 -74 -58 -135 -35 -135 7 0 13 -9 13 -20 0 -11 -4 -20 -10 -20
-5 0 -10 -4 -10 -10 0 -5 7 -10 15 -10 21 0 19 -9 -10 -31 -14 -12 -22 -26
-18 -34 3 -10 -2 -15 -16 -15 -29 0 -28 -36 2 -44 40 -11 66 -6 77 14 6 10 10
23 9 27 -5 24 16 94 32 109 11 9 19 28 19 40 0 13 6 41 14 61 8 21 20 63 27
93 6 30 15 62 20 71 9 18 -7 39 -30 38 -9 0 -29 -8 -46 -17z"/>
<path d="M11808 2692 c-119 -4 -113 -22 7 -22 53 0 95 4 95 9 0 15 -9 16 -102
13z"/>
<path d="M11129 2613 c-21 -13 -27 -24 -26 -51 1 -26 -6 -41 -28 -61 -17 -14
-30 -31 -30 -36 -1 -6 -6 -21 -12 -35 -24 -56 -43 -127 -43 -160 0 -26 3 -31
10 -20 5 8 10 10 10 4 0 -6 15 -16 33 -22 17 -5 24 -10 15 -11 -10 -1 -18 -8
-18 -16 0 -11 -12 -15 -47 -16 -126 -3 -113 -28 15 -30 82 -1 142 13 110 26
-17 7 -14 33 4 46 5 3 11 17 13 30 2 13 10 42 19 64 16 42 22 140 8 131 -9 -5
-8 5 6 107 10 74 7 79 -39 50z"/>
<path d="M11305 2268 c-9 -24 1 -48 20 -48 19 0 19 20 1 46 -14 18 -15 18 -21
2z"/>
<path d="M8880 2190 c0 -5 11 -10 25 -10 14 0 25 5 25 10 0 6 -11 10 -25 10
-14 0 -25 -4 -25 -10z"/>
<path d="M11770 2191 c-77 -8 -40 -21 61 -21 66 0 77 2 73 15 -6 16 -31 17
-134 6z"/>
<path d="M11008 2058 c-13 -24 -26 -59 -29 -78 -4 -19 -15 -55 -24 -80 -17
-46 -35 -130 -38 -185 -2 -28 1 -30 34 -33 l35 -3 0 76 c-1 46 3 78 10 83 15
9 64 150 64 183 0 14 6 31 13 38 10 10 8 15 -7 27 -29 21 -33 18 -58 -28z"/>
<path d="M8990 2065 c0 -9 5 -15 11 -13 6 2 11 8 11 13 0 5 -5 11 -11 13 -6 2
-11 -4 -11 -13z"/>
<path d="M11720 1720 c0 -5 5 -10 10 -10 6 0 10 5 10 10 0 6 -4 10 -10 10 -5
0 -10 -4 -10 -10z"/>
<path d="M11810 1702 c-93 -5 -83 -22 13 -22 67 0 87 3 87 14 0 8 -9 13 -22
12 -13 0 -48 -2 -78 -4z"/>
<path d="M9704 1629 c4 -27 13 -64 20 -82 8 -18 19 -50 26 -72 6 -22 20 -59
31 -82 23 -51 27 -81 34 -248 6 -154 19 -204 89 -347 32 -66 43 -80 77 -95 21
-9 39 -20 39 -25 0 -4 6 -8 14 -8 7 0 19 -7 26 -15 7 -8 17 -12 23 -8 5 3 7 1
4 -4 -4 -6 3 -19 14 -29 12 -11 35 -39 52 -64 17 -25 37 -49 44 -53 7 -4 13
-14 13 -21 0 -7 17 -35 38 -62 21 -27 43 -61 50 -76 10 -25 17 -28 59 -30 37
-1 40 -2 16 -5 -43 -6 -47 -40 -5 -46 l27 -4 -27 -2 c-20 -1 -28 -6 -28 -20 0
-11 -3 -27 -6 -35 -4 -12 -2 -15 9 -10 9 3 13 14 10 27 -4 21 -4 21 7 3 10
-15 14 -16 21 -5 6 10 9 11 9 2 0 -7 4 -13 10 -13 5 0 7 13 4 28 -6 32 14 56
43 50 13 -2 18 -13 18 -38 0 -33 -2 -35 -45 -43 -39 -8 -42 -10 -22 -18 12 -5
22 -16 22 -26 0 -10 8 -30 18 -43 9 -13 24 -43 33 -65 l17 -40 106 -3 c58 -1
106 1 107 5 12 122 13 170 2 162 -7 -7 -14 -6 -19 3 -4 7 -4 10 1 6 14 -13 35
13 35 42 0 16 6 30 13 33 6 2 9 7 6 11 -14 16 -39 -8 -39 -37 0 -42 -7 -31
-12 18 -2 26 1 40 9 40 6 0 15 3 19 8 4 4 2 7 -4 7 -7 0 -12 5 -12 11 0 5 3 8
8 6 9 -6 8 211 -2 220 -3 3 -6 21 -6 40 0 34 -13 44 -24 18 -4 -12 -24 -15
-89 -15 -76 0 -86 2 -117 28 -18 15 -41 35 -49 45 -9 10 -40 43 -68 73 -29 30
-53 58 -53 62 0 4 -15 13 -32 20 -35 12 -148 118 -148 137 0 7 -37 53 -74 95
-22 25 -27 55 -12 75 13 19 15 19 52 1 45 -21 222 -210 242 -257 7 -17 22 -33
32 -36 11 -3 20 -9 20 -13 0 -4 17 -12 38 -18 40 -13 172 -12 172 1 0 16 3 23
20 47 9 14 21 48 25 75 10 71 7 380 -6 508 -9 94 -8 113 6 143 16 34 49 46 58
22 6 -17 27 36 27 68 0 24 0 24 -105 24 l-105 0 0 -36 c0 -19 5 -44 10 -55 15
-26 15 -638 1 -652 -7 -7 -19 -4 -37 8 -21 13 -31 15 -50 6 -23 -10 -69 1 -84
20 -31 40 -181 220 -190 229 -3 3 -17 21 -32 40 -14 19 -34 44 -45 55 -10 11
-25 29 -33 41 -8 12 -39 48 -68 80 -75 82 -108 133 -116 177 -15 82 -21 87
-99 87 l-70 0 7 -51z m810 -1351 c8 -5 7 -8 -1 -8 -16 0 -17 -42 -1 -58 9 -9
8 -12 -4 -12 -11 0 -17 11 -20 38 -4 45 2 85 10 62 3 -8 10 -18 16 -22z m71
-38 c0 -28 -4 -36 -22 -38 -14 -2 -26 4 -33 17 -15 29 4 63 33 59 18 -2 22
-10 22 -38z m85 1 c0 -55 -8 -71 -37 -71 -17 0 -24 5 -22 18 1 9 -1 25 -5 34
-11 25 11 58 39 58 22 0 25 -4 25 -39z"/>
<path d="M10544 255 c-4 -8 -3 -23 0 -32 6 -15 8 -15 23 -1 16 17 12 48 -7 48
-6 0 -13 -7 -16 -15z"/>
<path d="M10624 255 c-8 -20 3 -48 16 -40 13 8 13 55 0 55 -6 0 -13 -7 -16
-15z"/>
<path d="M10625 190 c4 -6 11 -8 16 -5 14 9 11 15 -7 15 -8 0 -12 -5 -9 -10z"/>
<path d="M11356 1643 c7 -47 12 -55 26 -47 6 4 8 2 4 -4 -11 -18 8 -21 40 -6
25 12 64 67 64 89 0 3 -31 5 -70 5 l-70 0 6 -37z"/>
<path d="M11364 1385 c-3 -8 -2 -19 2 -26 4 -8 3 -9 -4 -5 -8 5 -14 -7 -18
-34 -4 -22 -10 -40 -14 -40 -4 0 -11 -21 -15 -47 -4 -25 -13 -56 -20 -67 -8
-13 -14 -57 -15 -121 0 -55 -5 -117 -9 -137 -5 -21 -5 -36 -1 -33 4 3 10 -4
13 -15 13 -51 57 -1 57 65 0 18 5 35 10 37 6 2 15 34 20 71 6 38 15 77 20 87
6 10 10 77 10 149 0 111 -2 131 -15 131 -9 0 -18 -7 -21 -15z m-68 -502 c-11
-11 -19 6 -11 24 8 17 8 17 12 0 3 -10 2 -21 -1 -24z"/>
<path d="M10680 1002 c0 -23 -5 -42 -10 -42 -16 0 -9 -119 8 -132 26 -22 32 5
23 106 -10 103 -21 139 -21 68z"/>
<path d="M11104 307 c-2 -7 2 -30 10 -52 l15 -40 -2 42 c-1 22 -6 39 -11 35
-5 -3 -7 2 -3 11 3 10 4 17 1 17 -2 0 -7 -6 -10 -13z"/>
<path d="M11251 306 c-9 -10 -8 -15 3 -19 11 -4 13 -1 9 11 -6 15 -5 16 13 2
18 -14 18 -14 5 3 -16 21 -16 20 -30 3z"/>
<path d="M11190 306 c0 -2 9 -6 20 -9 11 -3 18 -1 14 4 -5 9 -34 13 -34 5z"/>
<path d="M10835 291 c-2 -5 7 -8 20 -8 14 0 25 2 25 6 0 10 -39 11 -45 2z"/>
<path d="M11470 246 c0 -30 3 -57 8 -60 4 -2 7 22 7 55 0 32 -3 59 -7 59 -5 0
-8 -24 -8 -54z"/>
<path d="M11830 251 c0 -46 -2 -50 -27 -54 -26 -4 -26 -4 5 -6 l32 -1 0 55 c0
30 -2 55 -5 55 -3 0 -5 -22 -5 -49z"/>
<path d="M11077 260 c-3 -11 -1 -20 4 -20 5 0 9 9 9 20 0 11 -2 20 -4 20 -2 0
-6 -9 -9 -20z"/>
<path d="M11287 273 c-9 -14 -12 -82 -4 -89 8 -8 8 -9 10 54 2 43 1 47 -6 35z"/>
<path d="M10427 264 c-15 -15 -7 -45 11 -42 9 2 17 12 17 22 0 20 -16 31 -28
20z"/>
<path d="M10757 263 c-12 -12 -7 -22 8 -17 8 4 15 10 15 15 0 11 -14 12 -23 2z"/>
<path d="M10830 230 c0 -22 4 -40 9 -40 5 0 11 18 13 40 2 28 0 40 -9 40 -8 0
-13 -14 -13 -40z"/>
<path d="M10870 232 c0 -23 4 -42 9 -42 5 0 7 17 4 38 -7 51 -13 53 -13 4z"/>
<path d="M10905 260 c-3 -5 1 -10 9 -10 9 0 16 5 16 10 0 6 -4 10 -9 10 -6 0
-13 -4 -16 -10z"/>
<path d="M10985 260 c-3 -5 -1 -10 4 -10 6 0 11 5 11 10 0 6 -2 10 -4 10 -3 0
-8 -4 -11 -10z"/>
<path d="M11157 263 c-12 -12 -7 -22 8 -17 8 4 15 10 15 15 0 11 -14 12 -23 2z"/>
<path d="M11200 242 c0 -18 4 -32 8 -32 9 0 8 47 -1 57 -4 3 -7 -8 -7 -25z"/>
<path d="M11243 263 c-8 -3 -13 -22 -13 -46 0 -31 3 -38 12 -29 9 9 24 84 16
81 -2 0 -9 -3 -15 -6z"/>
<path d="M11314 255 c-3 -8 -4 -20 -1 -27 4 -8 6 -6 6 5 1 9 6 17 11 17 6 0
10 5 10 10 0 15 -20 12 -26 -5z"/>
<path d="M11362 235 c-3 -47 -10 -61 -37 -68 -15 -3 -13 -5 8 -6 33 -1 40 12
34 70 l-4 44 -1 -40z"/>
<path d="M11395 260 c-3 -5 3 -10 15 -10 12 0 18 5 15 10 -3 6 -10 10 -15 10
-5 0 -12 -4 -15 -10z"/>
<path d="M11505 260 c-3 -5 1 -10 9 -10 9 0 16 5 16 10 0 6 -4 10 -9 10 -6 0
-13 -4 -16 -10z"/>
<path d="M11581 265 c1 -19 18 -51 18 -35 0 8 -4 22 -9 30 -5 8 -9 11 -9 5z"/>
<path d="M11620 258 c0 -7 -7 -25 -14 -40 -12 -23 -12 -28 -2 -28 8 0 18 18
24 40 5 23 6 40 1 40 -5 0 -9 -6 -9 -12z"/>
<path d="M11655 260 c-3 -5 1 -10 9 -10 9 0 16 5 16 10 0 6 -4 10 -9 10 -6 0
-13 -4 -16 -10z"/>
<path d="M11701 258 c-1 -12 -9 -18 -26 -18 -14 0 -25 -4 -25 -9 0 -7 60 -5
66 2 1 1 -2 11 -7 22 -6 17 -8 17 -8 3z"/>
<path d="M11744 262 c-16 -10 -23 -79 -8 -79 6 0 11 13 12 29 0 16 6 36 13 44
12 15 2 19 -17 6z"/>
<path d="M11784 255 c-3 -8 -4 -20 -1 -27 3 -8 6 -6 6 5 1 10 6 15 11 12 6 -3
10 1 10 9 0 20 -19 21 -26 1z"/>
<path d="M10802 235 c0 -16 2 -22 5 -12 2 9 2 23 0 30 -3 6 -5 -1 -5 -18z"/>
<path d="M10950 253 c0 -7 -11 -13 -25 -13 -14 0 -25 -4 -25 -10 0 -5 14 -7
33 -3 40 7 38 6 27 23 -7 10 -10 11 -10 3z"/>
<path d="M11441 253 c-1 -7 -12 -13 -26 -13 -14 0 -25 -5 -25 -10 0 -6 11 -8
28 -4 34 8 35 10 29 26 -4 10 -6 10 -6 1z"/>
<path d="M11550 253 c0 -7 -11 -13 -25 -13 -14 0 -25 -5 -25 -11 0 -7 10 -9
26 -5 34 9 28 -15 -7 -26 -22 -6 -22 -7 5 -5 32 2 51 33 35 58 -6 10 -9 10 -9
2z"/>
<path d="M10760 230 c-8 -5 -12 -11 -9 -14 2 -3 11 -1 19 4 8 5 12 11 9 14 -2
3 -11 1 -19 -4z"/>
<path d="M11160 230 c-8 -5 -12 -11 -9 -14 2 -3 11 -1 19 4 8 5 12 11 9 14 -2
3 -11 1 -19 -4z"/>
<path d="M11060 210 c-11 -21 3 -29 15 -9 4 6 13 8 21 5 8 -3 14 1 14 9 0 22
-38 18 -50 -5z"/>
<path d="M10930 203 c-24 -12 -24 -13 -3 -13 12 0 25 5 28 11 11 16 2 17 -25
2z"/>
<path d="M11420 203 c-24 -12 -24 -13 -3 -13 12 0 25 5 28 11 11 16 2 17 -25
2z"/>
<path d="M11694 211 c-5 -5 -18 -11 -29 -14 -15 -4 -14 -5 7 -6 15 0 30 4 33
10 9 14 1 21 -11 10z"/>
<path d="M10765 199 c-15 -6 -11 -8 18 -8 20 -1 37 1 37 3 0 9 -37 12 -55 5z"/>
<path d="M10985 200 c-3 -5 -1 -10 4 -10 6 0 11 5 11 10 0 6 -2 10 -4 10 -3 0
-8 -4 -11 -10z"/>
<path d="M11125 200 c-3 -5 -1 -10 4 -10 6 0 11 5 11 10 0 6 -2 10 -4 10 -3 0
-8 -4 -11 -10z"/>
<path d="M11150 192 c0 -4 16 -6 35 -4 19 2 35 6 35 8 0 2 -16 4 -35 4 -19 0
-35 -4 -35 -8z"/>
<path d="M11318 193 c7 -3 16 -2 19 1 4 3 -2 6 -13 5 -11 0 -14 -3 -6 -6z"/>
<path d="M11105 170 c-3 -6 1 -7 9 -4 18 7 21 14 7 14 -6 0 -13 -4 -16 -10z"/>
<path d="M11176 168 c3 -5 10 -6 15 -3 13 9 11 12 -6 12 -8 0 -12 -4 -9 -9z"/>
</g>
</svg>
